<?xml version="1.0" encoding="utf-8"?>
<!-- Generator: Adobe Illustrator 23.0.1, SVG Export Plug-In . SVG Version: 6.00 Build 0)  -->
<svg version="1.1" id="Calque_1" xmlns="http://www.w3.org/2000/svg" xmlns:xlink="http://www.w3.org/1999/xlink" x="0px" y="0px"
	 viewBox="0 0 1280 800" style="enable-background:new 0 0 1280 800;" xml:space="preserve">
<style type="text/css">
	.st0{fill:#FAC1C1;}
	.st1{fill:#FFFFFF;}
	.st2{fill:#FFFFFF;stroke:#FFFFFF;stroke-miterlimit:10;}
</style>
<g>
	<path class="st0" d="M67.5,69.2h13.9v48.5c0,2.8,0.3,5.2,0.8,7.2s1.3,3.6,2.3,4.8s2.3,2.1,3.8,2.7c1.5,0.6,3.3,0.9,5.2,0.9
		c1.4,0,2.6-0.1,3.6-0.4s1.7-0.4,2.3-0.4c0.9,0,1.6,0.2,2.1,0.7s0.8,1.1,0.9,1.8c0.1,1.4,0.2,2.8,0.4,4.1c0.1,1.4,0.3,2.8,0.4,4.1
		c-2,0.5-3.9,0.8-5.7,1.1c-1.8,0.2-3.6,0.3-5.5,0.3c-4.1,0-7.7-0.6-10.7-1.9c-3.1-1.3-5.7-3.1-7.7-5.5c-2.1-2.4-3.6-5.3-4.6-8.6
		s-1.6-7.2-1.6-11.4L67.5,69.2L67.5,69.2z"/>
	<ellipse class="st1" cx="74.9" cy="53.9" rx="7.9" ry="7.9"/>
	<path class="st0" d="M107.3,69.4h12.9v43h-12.9V69.4z"/>
	<ellipse class="st1" cx="114.1" cy="137.1" rx="7.9" ry="7.9"/>
	<path class="st0" d="M110.9,80.1V93H76.3V80.1H110.9z"/>
	<g>
		<path class="st1" d="M105.1,231.3H79.6v-5.1h10.5v-10.5H79.6v-5.1h25.5v5.1H94.5v10.5H105L105.1,231.3z"/>
		<path class="st1" d="M105.4,201.2c0,1.2-0.2,2.2-0.6,3.1c-0.4,0.9-1.1,1.6-1.9,2.2s-1.9,0.8-3.1,0.8c-1.1,0-1.9-0.2-2.7-0.6
			s-1.3-0.9-1.7-1.5s-0.8-1.4-1-2.2s-0.4-1.7-0.5-2.6c-0.1-1.1-0.2-1.9-0.3-2.6s-0.3-1.1-0.5-1.4c-0.2-0.3-0.5-0.4-0.9-0.4h-0.1
			c-0.8,0-1.4,0.2-1.8,0.7s-0.6,1.1-0.6,2s0.2,1.6,0.6,2.2s0.9,0.9,1.6,1.1l-0.4,4.7c-1.2-0.2-2.2-0.7-3-1.4c-0.9-0.7-1.5-1.6-2-2.7
			s-0.7-2.4-0.7-3.9c0-1,0.1-2,0.4-2.9s0.6-1.8,1.2-2.5c0.5-0.7,1.2-1.3,2-1.7s1.8-0.6,2.9-0.6h12.9v4.8h-2.6v0.1
			c0.6,0.3,1.1,0.7,1.6,1.2s0.8,1.1,1.1,1.8S105.4,200.3,105.4,201.2L105.4,201.2z M101.8,199.8c0-0.8-0.2-1.4-0.5-2s-0.7-1-1.3-1.3
			s-1.1-0.5-1.8-0.5h-2c0.1,0.2,0.2,0.4,0.3,0.6c0.1,0.3,0.2,0.6,0.2,0.9s0.1,0.7,0.2,1s0.1,0.6,0.1,0.9c0.1,0.6,0.2,1.1,0.4,1.6
			c0.2,0.4,0.5,0.8,0.8,1s0.8,0.4,1.2,0.4c0.7,0,1.3-0.2,1.6-0.8C101.6,201.2,101.8,200.5,101.8,199.8z"/>
		<path class="st1" d="M83.5,184.4c0,0.8-0.3,1.4-0.8,1.9s-1.1,0.8-1.9,0.8s-1.4-0.3-1.9-0.8s-0.8-1.2-0.8-1.9
			c0-0.8,0.3-1.4,0.8-1.9s1.1-0.8,1.9-0.8s1.4,0.3,1.9,0.8S83.5,183.7,83.5,184.4z M86,187v-5.1h20c1.5,0,2.7,0.3,3.6,0.8
			c0.9,0.6,1.6,1.4,2,2.4s0.6,2.3,0.6,3.8v0.4c0,0,0,0.3,0,0.5H108c0-0.1,0-0.2,0-0.4c0-0.1,0-0.2,0-0.3c0-0.8-0.2-1.4-0.5-1.7
			s-0.9-0.5-1.6-0.5H86V187z"/>
		<path class="st1" d="M105.4,172.7c0,1.2-0.2,2.2-0.6,3.1c-0.4,0.9-1.1,1.6-1.9,2.2s-1.9,0.8-3.1,0.8c-1.1,0-1.9-0.2-2.7-0.6
			s-1.3-0.9-1.7-1.5s-0.8-1.4-1-2.2s-0.4-1.7-0.5-2.6c-0.1-1.1-0.2-1.9-0.3-2.6s-0.3-1.1-0.5-1.4c-0.2-0.3-0.5-0.4-0.9-0.4h-0.1
			c-0.8,0-1.4,0.2-1.8,0.7s-0.6,1.1-0.6,2s0.2,1.6,0.6,2.2s0.9,0.9,1.6,1.1l-0.4,4.7c-1.2-0.2-2.2-0.7-3-1.4c-0.9-0.7-1.5-1.6-2-2.7
			s-0.7-2.4-0.7-3.9c0-1,0.1-2,0.4-2.9s0.6-1.8,1.2-2.5c0.5-0.7,1.2-1.3,2-1.7s1.8-0.6,2.9-0.6h12.9v4.8h-2.6v0.1
			c0.6,0.3,1.1,0.7,1.6,1.2s0.8,1.1,1.1,1.8S105.4,171.8,105.4,172.7L105.4,172.7z M101.8,171.2c0-0.8-0.1-1.4-0.5-2
			c-0.3-0.6-0.7-1-1.3-1.3s-1.1-0.5-1.8-0.5h-2c0.1,0.2,0.2,0.4,0.3,0.6c0.1,0.3,0.2,0.6,0.2,0.9s0.1,0.7,0.2,1s0.1,0.6,0.1,0.9
			c0.1,0.6,0.2,1.1,0.4,1.6c0.2,0.4,0.5,0.8,0.8,1s0.8,0.4,1.2,0.4c0.7,0,1.3-0.2,1.6-0.8C101.6,172.6,101.8,172,101.8,171.2
			L101.8,171.2z"/>
		<path class="st1" d="M93.3,298.6c-0.6,0.1-1.1,0.3-1.5,0.8s-0.5,1.1-0.5,1.9c0,0.5,0.1,1,0.2,1.4c0.2,0.4,0.4,0.7,0.7,0.9
			s0.6,0.3,0.9,0.3s0.6,0,0.8-0.2s0.4-0.3,0.6-0.5s0.3-0.5,0.4-0.8s0.2-0.6,0.3-1l0.4-1.4c0.2-0.7,0.4-1.3,0.6-1.9
			c0.3-0.6,0.6-1.1,1-1.5s0.9-0.8,1.4-1s1.1-0.4,1.8-0.4c1,0,1.9,0.2,2.6,0.7s1.3,1.2,1.7,2.1s0.6,2,0.6,3.3s-0.2,2.4-0.6,3.3
			s-1,1.7-1.8,2.2s-1.8,0.8-3,0.8v-3.2c0.6,0,1-0.2,1.4-0.5s0.6-0.6,0.8-1.1s0.3-1,0.3-1.5c0-0.6-0.1-1.1-0.3-1.5s-0.4-0.7-0.7-1
			s-0.7-0.4-1.1-0.4s-0.7,0.1-0.9,0.3s-0.5,0.5-0.6,0.9c-0.2,0.4-0.3,0.9-0.5,1.5l-0.4,1.7c-0.3,1.3-0.9,2.4-1.6,3.1
			s-1.7,1.1-2.9,1.1c-1,0-1.9-0.2-2.6-0.8c-0.8-0.5-1.3-1.2-1.8-2.1s-0.6-1.9-0.6-3.1s0.2-2.2,0.6-3.1s1-1.6,1.8-2
			c0.8-0.5,1.6-0.7,2.6-0.8L93.3,298.6z"/>
		<path class="st1" d="M89.7,292.2v-3.3h11.5c0.3,0,0.6,0,0.7-0.1c0.2-0.1,0.3-0.2,0.4-0.4s0.1-0.4,0.1-0.6c0-0.1,0-0.3,0-0.5
			s-0.1-0.3-0.1-0.4l2.6-0.5c0.1,0.2,0.1,0.4,0.2,0.7c0.1,0.3,0.1,0.7,0.1,1.1c0,0.8-0.1,1.5-0.3,2.1s-0.6,1-1.2,1.4s-1.2,0.5-2,0.5
			L89.7,292.2z M92.7,286.7h2.6v7.1h-2.6V286.7z"/>
		<path class="st1" d="M99.8,277h-7.1v-3.3H105v3.1h-2.2v0.1c0.7,0.3,1.3,0.7,1.8,1.3s0.7,1.4,0.7,2.3c0,0.8-0.2,1.5-0.6,2.1
			s-0.9,1.1-1.6,1.4s-1.5,0.5-2.5,0.5h-7.9v-3.3h7.3c0.7,0,1.3-0.2,1.7-0.6s0.6-0.9,0.6-1.5c0-0.4-0.1-0.8-0.3-1.1s-0.5-0.6-0.9-0.8
			C100.8,277.1,100.3,277,99.8,277L99.8,277z"/>
		<path class="st1" d="M105.2,266.7c0,0.9-0.2,1.7-0.7,2.4s-1.2,1.3-2.1,1.7s-2.1,0.6-3.5,0.6s-2.6-0.2-3.5-0.6s-1.6-1-2.1-1.7
			s-0.7-1.5-0.7-2.4c0-0.7,0.1-1.2,0.4-1.7c0.2-0.4,0.5-0.8,0.9-1.1c0.4-0.3,0.7-0.5,1-0.6v-0.1h-6.2V260H105v3.2h-2v0.1
			c0.3,0.1,0.7,0.4,1,0.6s0.6,0.6,0.8,1.1S105.3,266.1,105.2,266.7L105.2,266.7z M102.5,265.7c0-0.5-0.1-1-0.4-1.3
			c-0.3-0.4-0.7-0.6-1.3-0.9s-1.2-0.3-1.9-0.3s-1.4,0.1-1.9,0.3c-0.5,0.2-1,0.5-1.3,0.9s-0.4,0.8-0.4,1.4c0,0.5,0.1,1,0.5,1.4
			s0.7,0.6,1.3,0.8s1.2,0.3,1.9,0.3c0.7,0,1.4-0.1,1.9-0.3s1-0.5,1.3-0.8C102.4,266.7,102.5,266.2,102.5,265.7L102.5,265.7z"/>
		<path class="st1" d="M91.1,255.7c0,0.5-0.2,0.9-0.5,1.2s-0.8,0.5-1.2,0.5c-0.5,0-0.9-0.2-1.2-0.5s-0.5-0.8-0.5-1.2
			c0-0.5,0.2-0.9,0.5-1.3s0.8-0.5,1.2-0.5s0.9,0.2,1.2,0.5S91.1,255.2,91.1,255.7z M105,257.3H92.7V254H105V257.3z"/>
		<path class="st1" d="M105.3,246.1c0,1.2-0.3,2.2-0.8,3.1s-1.3,1.5-2.2,2s-2.1,0.7-3.3,0.7c-1.3,0-2.4-0.2-3.4-0.7s-1.7-1.1-2.2-2
			s-0.8-1.9-0.8-3.1s0.3-2.2,0.8-3.1s1.3-1.5,2.2-2s2.1-0.7,3.4-0.7s2.4,0.2,3.3,0.7c1,0.5,1.7,1.1,2.2,2S105.3,244.9,105.3,246.1z
			 M102.6,246.1c0-0.5-0.2-1-0.5-1.4s-0.8-0.6-1.3-0.8s-1.2-0.3-1.9-0.3s-1.4,0.1-1.9,0.3s-1,0.5-1.3,0.8c-0.3,0.4-0.5,0.8-0.5,1.4
			c0,0.5,0.2,1,0.5,1.4s0.8,0.6,1.3,0.8c0.6,0.2,1.2,0.3,1.9,0.3s1.4-0.1,1.9-0.3s1-0.5,1.3-0.8
			C102.5,247.1,102.6,246.6,102.6,246.1z"/>
		<path class="st1" d="M105.3,236.2c0,0.5-0.2,0.9-0.6,1.3s-0.8,0.5-1.4,0.5s-1-0.2-1.4-0.5c-0.4-0.4-0.6-0.8-0.6-1.3
			s0.2-0.9,0.6-1.3c0.4-0.4,0.8-0.5,1.4-0.5c0.4,0,0.7,0.1,1,0.3s0.5,0.4,0.7,0.7S105.3,235.9,105.3,236.2L105.3,236.2z"/>
	</g>
	<path class="st2" d="M97.3,324.4v83.9"/>
</g>
</svg>
