<?xml version="1.0" standalone="no"?>
<!DOCTYPE svg PUBLIC "-//W3C//DTD SVG 20010904//EN"
 "http://www.w3.org/TR/2001/REC-SVG-20010904/DTD/svg10.dtd">
<svg version="1.0" xmlns="http://www.w3.org/2000/svg"
 width="285.000000pt" height="285.000000pt" viewBox="0 0 285.000000 285.000000"
 preserveAspectRatio="xMidYMid meet">
<metadata>
Created by potrace 1.11, written by Peter Selinger 2001-2013
</metadata>
<g transform="translate(0.000000,285.000000) scale(0.100000,-0.100000)"
fill="#000000" stroke="none">
<path d="M805 2838 c-206 -46 -234 -334 -41 -424 157 -73 331 45 320 217 -9
142 -140 239 -279 207z"/>
<path d="M646 1433 c0 -412 4 -768 8 -793 4 -25 12 -63 16 -85 5 -22 12 -53
16 -70 3 -16 26 -72 51 -124 90 -189 261 -311 473 -338 102 -14 291 -8 380 11
14 3 38 8 54 12 l29 6 -7 67 c-3 36 -9 95 -12 131 -8 85 -31 112 -97 112 -25
0 -51 -3 -57 -7 -18 -11 -136 -13 -191 -3 -141 26 -223 119 -250 285 -11 73
-15 840 -4 851 10 11 716 8 722 -2 3 -5 6 -130 6 -277 l-1 -269 187 0 186 0
-1 613 c-1 336 -2 614 -3 617 0 3 -83 5 -183 5 l-183 0 -1 -148 c-1 -81 -4
-150 -7 -154 -8 -7 -715 -8 -723 0 -3 3 -6 74 -6 156 l0 151 -202 0 -201 0 1
-747z"/>
<path d="M1896 445 c-78 -28 -146 -124 -146 -207 0 -89 54 -174 134 -212 47
-22 130 -22 184 -1 51 21 120 95 127 139 3 17 7 44 10 60 5 37 -28 132 -57
164 -60 64 -166 88 -252 57z"/>
</g>
</svg>
